<svg id="edit" xmlns="http://www.w3.org/2000/svg" width="11.72" height="11.72" viewBox="0 0 11.72 11.72">
  <g id="Group_337" data-name="Group 337" transform="translate(0 0.837)">
    <g id="Group_336" data-name="Group 336">
      <path id="Path_444" data-name="Path 444" d="M9.627,39.16a.419.419,0,0,0-.419.419v4.186a.419.419,0,0,1-.419.419H1.256a.419.419,0,0,1-.419-.419V35.393a.419.419,0,0,1,.419-.419H6.279a.419.419,0,1,0,0-.837H1.256A1.256,1.256,0,0,0,0,35.393v8.372A1.256,1.256,0,0,0,1.256,45.02H8.79a1.256,1.256,0,0,0,1.256-1.256V39.579A.419.419,0,0,0,9.627,39.16Z" transform="translate(0 -34.137)"/>
    </g>
  </g>
  <g id="Group_339" data-name="Group 339" transform="translate(2.512 0)">
    <g id="Group_338" data-name="Group 338" transform="translate(0 0)">
      <path id="Path_445" data-name="Path 445" d="M111.148.473a1.6,1.6,0,0,0-2.266,0l-5.514,5.513a.423.423,0,0,0-.1.164l-.837,2.511a.419.419,0,0,0,.4.551.425.425,0,0,0,.132-.021l2.511-.837a.419.419,0,0,0,.164-.1l5.514-5.514A1.6,1.6,0,0,0,111.148.473Zm-.592,1.675-5.442,5.442-1.626.543.541-1.624,5.444-5.442a.765.765,0,1,1,1.082,1.081Z" transform="translate(-102.409 -0.004)"/>
    </g>
  </g>
</svg>
