<svg xmlns="http://www.w3.org/2000/svg" width="20.002" height="20.001" viewBox="0 0 20.002 20.001">
  <g id="edit" transform="translate(0 -0.004)">
    <g id="Group_337" data-name="Group 337" transform="translate(0 1.432)">
      <g id="Group_336" data-name="Group 336">
        <path id="Path_444" data-name="Path 444" d="M16.43,42.709a.714.714,0,0,0-.714.714v7.143a.714.714,0,0,1-.714.714H2.143a.714.714,0,0,1-.714-.714V36.28a.714.714,0,0,1,.714-.714h8.572a.714.714,0,1,0,0-1.429H2.143A2.143,2.143,0,0,0,0,36.28V50.567A2.143,2.143,0,0,0,2.143,52.71H15a2.143,2.143,0,0,0,2.143-2.143V43.423A.714.714,0,0,0,16.43,42.709Z" transform="translate(0 -34.137)"/>
      </g>
    </g>
    <g id="Group_339" data-name="Group 339" transform="translate(4.286 0.004)">
      <g id="Group_338" data-name="Group 338" transform="translate(0 0)">
        <path id="Path_445" data-name="Path 445" d="M117.323.8a2.734,2.734,0,0,0-3.868,0l-9.409,9.409a.722.722,0,0,0-.172.279l-1.429,4.286a.714.714,0,0,0,.677.94.726.726,0,0,0,.226-.036l4.286-1.429a.715.715,0,0,0,.279-.173l9.409-9.409A2.735,2.735,0,0,0,117.323.8Zm-1.01,2.858-9.286,9.286-2.775.926.924-2.771,9.29-9.286a1.305,1.305,0,1,1,1.847,1.844Z" transform="translate(-102.409 -0.004)"/>
      </g>
    </g>
  </g>
</svg>
