<svg id="download_1_" data-name="download (1)" xmlns="http://www.w3.org/2000/svg" width="16.86" height="14.05" viewBox="0 0 16.86 14.05">
  <path id="Path_596" data-name="Path 596" d="M10.215,9.835a.523.523,0,0,1-.372-.155L6.155,5.992a.527.527,0,0,1,.372-.9H8.459V.878A.879.879,0,0,1,9.337,0h1.756a.879.879,0,0,1,.878.878V5.093H13.9a.527.527,0,0,1,.372.9L10.587,9.68a.523.523,0,0,1-.372.155Z" transform="translate(-1.785)" fill="#b5b5b5"/>
  <path id="Path_599" data-name="Path 599" d="M12.35,11.558,9.8,14.112a1.931,1.931,0,0,1-2.732,0L4.51,11.558,0,13.625l8.43,3.864,8.43-3.864Z" transform="translate(0 -3.439)" fill="#b5b5b5"/>
</svg>
