<svg xmlns="http://www.w3.org/2000/svg" width="15.035" height="15.036" viewBox="0 0 15.035 15.036">
  <g id="money" transform="translate(-0.007)">
    <g id="Group_1201" data-name="Group 1201" transform="translate(2.004 13.274)">
      <g id="Group_1200" data-name="Group 1200">
        <path id="Path_539" data-name="Path 539" d="M68.5,452.087a.293.293,0,1,0,.086.208A.3.3,0,0,0,68.5,452.087Z" transform="translate(-68.003 -452.001)"/>
      </g>
    </g>
    <g id="Group_1203" data-name="Group 1203" transform="translate(13.294 5.286)">
      <g id="Group_1202" data-name="Group 1202">
        <path id="Path_540" data-name="Path 540" d="M452.955,180.094a.293.293,0,1,0,.086.208A.3.3,0,0,0,452.955,180.094Z" transform="translate(-452.454 -180.008)"/>
      </g>
    </g>
    <g id="Group_1205" data-name="Group 1205" transform="translate(0.007)">
      <g id="Group_1204" data-name="Group 1204" transform="translate(0)">
        <path id="Path_541" data-name="Path 541" d="M14.956.086A.294.294,0,0,0,14.749,0H7.525a.294.294,0,0,0-.294.294v.84L4.447,1.88a.294.294,0,0,0-.208.36L5.682,7.623,4.434,8.872a.881.881,0,0,0-.727-.384H.888a.882.882,0,0,0-.881.881v4.787a.882.882,0,0,0,.881.881H3.707a.882.882,0,0,0,.855-.669l.349.3a1.48,1.48,0,0,0,.973.364h8.865a.294.294,0,0,0,.294-.294V.294A.294.294,0,0,0,14.956.086ZM4,14.155a.294.294,0,0,1-.294.294H.888a.294.294,0,0,1-.294-.294V9.368a.294.294,0,0,1,.294-.294H2v3.383a.294.294,0,0,0,.587,0V9.074H3.707A.294.294,0,0,1,4,9.368v4.787ZM4.883,2.371l2.348-.629V2.83l-.2.053a.294.294,0,0,0-.208.36.792.792,0,0,1-.559.968.294.294,0,0,0-.208.36L7.2,8.81H6.615l-.3-1.188a.293.293,0,0,0-.049-.1ZM7.231,4.177V6.655L6.7,4.671A1.376,1.376,0,0,0,7.231,4.177ZM11.45,14.448H5.884a.892.892,0,0,1-.587-.22l-.709-.618V9.548L5.87,8.266l.233.91a.294.294,0,0,0,.285.221h5.774a.411.411,0,1,1,0,.822H9.2a.294.294,0,1,0,0,.587H13.08a.411.411,0,1,1,0,.822H9.2a.294.294,0,1,0,0,.587h3.249a.411.411,0,0,1,0,.822H9.2a.294.294,0,1,0,0,.587H11.45a.411.411,0,1,1,0,.822Zm3.005,0h-2.1a.995.995,0,0,0,0-.822h.092a1,1,0,0,0,.892-1.445,1,1,0,0,0,.537-1.558V6.9a.294.294,0,1,0-.587,0v3.342a1,1,0,0,0-.214-.023h-.01a1,1,0,0,0-.91-1.41h-.472a1.405,1.405,0,1,0-1.1,0H8.979V3.226a1.382,1.382,0,0,0,1.053-1.053h2.209a1.382,1.382,0,0,0,1.053,1.053v.913a.294.294,0,1,0,.587,0V2.964a.294.294,0,0,0-.294-.294A.792.792,0,0,1,12.8,1.88a.294.294,0,0,0-.294-.294H9.77a.294.294,0,0,0-.294.294.792.792,0,0,1-.791.791.294.294,0,0,0-.294.294V8.81H7.818V.588h6.637ZM11.137,8.336a.818.818,0,1,1,.818-.818A.819.819,0,0,1,11.137,8.336Z" transform="translate(-0.007)"/>
      </g>
    </g>
  </g>
</svg>
