<svg xmlns="http://www.w3.org/2000/svg" width="17.715" height="17.714" viewBox="0 0 17.715 17.714">
  <g id="edit_3_" data-name="edit (3)" transform="translate(0 -0.004)">
    <g id="Group_1196" data-name="Group 1196" transform="translate(0 1.269)">
      <g id="Group_1195" data-name="Group 1195">
        <path id="Path_536" data-name="Path 536" d="M14.551,41.729a.633.633,0,0,0-.633.633v6.327a.633.633,0,0,1-.633.633H1.9a.633.633,0,0,1-.633-.633V36.035A.633.633,0,0,1,1.9,35.4H9.49a.633.633,0,1,0,0-1.265H1.9a1.9,1.9,0,0,0-1.9,1.9V48.688a1.9,1.9,0,0,0,1.9,1.9H13.286a1.9,1.9,0,0,0,1.9-1.9V42.362A.633.633,0,0,0,14.551,41.729Z" transform="translate(0 -34.137)" fill="#00e7fc"/>
      </g>
    </g>
    <g id="Group_1198" data-name="Group 1198" transform="translate(3.796 0.004)">
      <g id="Group_1197" data-name="Group 1197" transform="translate(0 0)">
        <path id="Path_537" data-name="Path 537" d="M115.618.713a2.422,2.422,0,0,0-3.425,0l-8.333,8.333a.64.64,0,0,0-.152.247l-1.265,3.8a.633.633,0,0,0,.6.833.643.643,0,0,0,.2-.032l3.8-1.265a.633.633,0,0,0,.247-.153l8.333-8.333A2.422,2.422,0,0,0,115.618.713Zm-.895,2.531L106.5,11.469l-2.457.821.818-2.454,8.228-8.225a1.156,1.156,0,1,1,1.636,1.634Z" transform="translate(-102.409 -0.004)" fill="#00e7fc"/>
      </g>
    </g>
  </g>
</svg>
