<svg xmlns="http://www.w3.org/2000/svg" width="25" height="22.676" viewBox="0 0 25 22.676">
  <g id="heart_3_" data-name="heart (3)" transform="translate(0 -22.543)">
    <path id="Path_543" data-name="Path 543" d="M17.712,22.543a7.209,7.209,0,0,0-3.311.794,7.345,7.345,0,0,0-1.9,1.4,7.345,7.345,0,0,0-1.9-1.4,7.21,7.21,0,0,0-3.311-.794A7.3,7.3,0,0,0,0,29.831c0,2.846,1.5,5.869,4.468,8.985a43.2,43.2,0,0,0,7.612,6.131l.42.271.42-.271a43.2,43.2,0,0,0,7.612-6.131C23.5,35.7,25,32.677,25,29.831A7.3,7.3,0,0,0,17.712,22.543Z" fill="#00E7FC"/>
  </g>
</svg>
