<svg xmlns="http://www.w3.org/2000/svg" width="19.055" height="17.153" viewBox="0 0 19.055 17.153">
  <g id="_27a4d181469b5cde9f1750598474ecd6" data-name="27a4d181469b5cde9f1750598474ecd6" transform="translate(-10 -58.9)">
    <path id="Path_657" data-name="Path 657" d="M27.149,73.667H25.607l-1.377,2.386L20.1,73.667H11.905A1.906,1.906,0,0,1,10,71.762V60.805A1.906,1.906,0,0,1,11.905,58.9H27.149a1.906,1.906,0,0,1,1.905,1.905V71.762A1.906,1.906,0,0,1,27.149,73.667Zm.476-13.338h-16.2V72.238h9.02l3.307,1.909,1.1-1.909h2.769V60.329ZM13.335,69.143a.716.716,0,0,1,.716-.716H25.006a.716.716,0,1,1,0,1.431H14.05A.717.717,0,0,1,13.335,69.143ZM25.006,67H14.05a.716.716,0,0,1,0-1.431H25.006a.716.716,0,0,1,0,1.431ZM21.2,64.14H14.05a.715.715,0,1,1,0-1.429H21.2a.715.715,0,1,1,0,1.429Z"/>
  </g>
</svg>
