<svg xmlns="http://www.w3.org/2000/svg" width="15.001" height="15.001" viewBox="0 0 15.001 15.001">
  <g id="profile-user" transform="translate(0 -0.001)">
    <path id="Path_538" data-name="Path 538" d="M7.5,0A7.5,7.5,0,1,0,15,7.5,7.5,7.5,0,0,0,7.5,0Zm0,2.243A2.481,2.481,0,1,1,5.02,4.725,2.481,2.481,0,0,1,7.5,2.244Zm0,10.8a5.5,5.5,0,0,1-3.585-1.322,1.057,1.057,0,0,1-.371-.8,2.5,2.5,0,0,1,2.514-2.5H8.944a2.5,2.5,0,0,1,2.51,2.5,1.055,1.055,0,0,1-.371.8A5.5,5.5,0,0,1,7.5,13.041Z" transform="translate(0 0)"/>
  </g>
</svg>
