<svg xmlns="http://www.w3.org/2000/svg" width="18.336" height="10.565" viewBox="0 0 18.336 10.565">
  <g id="eye_3_" data-name="eye (3)" transform="translate(0 -108.496)">
    <g id="Group_1265" data-name="Group 1265" transform="translate(0 108.496)">
      <g id="Group_1264" data-name="Group 1264" transform="translate(0 0)">
        <path id="Path_594" data-name="Path 594" d="M18.068,113.443a16.481,16.481,0,0,0-2.575-2.462,13.5,13.5,0,0,0-2.808-1.7,8.827,8.827,0,0,0-3.371-.785l-.146,0-.146,0a8.825,8.825,0,0,0-3.371.785,13.494,13.494,0,0,0-2.808,1.7,16.482,16.482,0,0,0-2.575,2.462L0,113.779l.269.336a16.481,16.481,0,0,0,2.575,2.462,13.5,13.5,0,0,0,2.808,1.7,8.827,8.827,0,0,0,3.371.785l.146,0,.146,0a8.825,8.825,0,0,0,3.371-.785,13.493,13.493,0,0,0,2.808-1.7,16.48,16.48,0,0,0,2.575-2.462l.269-.336Zm-13.4,3.092a13.8,13.8,0,0,1-1.143-.794A16.448,16.448,0,0,1,1.4,113.779a16.448,16.448,0,0,1,2.122-1.963,13.782,13.782,0,0,1,1.143-.794,5.272,5.272,0,0,0,0,5.513ZM9.3,117.984l-.129,0-.129,0a4.208,4.208,0,0,1,0-8.412l.129,0,.129,0a4.208,4.208,0,0,1,0,8.412Zm5.519-2.243a13.776,13.776,0,0,1-1.143.794,5.272,5.272,0,0,0,0-5.513,13.811,13.811,0,0,1,1.143.794,16.445,16.445,0,0,1,2.122,1.963A16.445,16.445,0,0,1,14.816,115.742Z" transform="translate(0 -108.496)" fill="#b5b5b5"/>
      </g>
    </g>
    <g id="Group_1267" data-name="Group 1267" transform="translate(6.113 110.723)">
      <g id="Group_1266" data-name="Group 1266">
        <path id="Path_595" data-name="Path 595" d="M173.741,170.685a3.055,3.055,0,1,0,3.055,3.055A3.059,3.059,0,0,0,173.741,170.685Zm0,5.036a1.981,1.981,0,1,1,1.981-1.981A1.983,1.983,0,0,1,173.741,175.721Z" transform="translate(-170.686 -170.685)" fill="#b5b5b5"/>
      </g>
    </g>
  </g>
</svg>
